
V A Your Songs 2011(mp3 320kbs)ICM369
-------------------------------------

Your Songs brings you the ultimate collection of all your 
favourite songs in one amazing CD. 

Released just in time to clear the winter blues Your Songs 
includes favourite chart toppers such as Ellie Goulding's 
version of Your Songs - used in the John Lewis brand 
Christmas campaign as well as Take That The Flood, Duffy's 
Well, Well, Well; Brandon Flowers Crossfire and Cheryl Cole's 
kicking new single also called The Flood.

Your Songs includes a number of timeless classics which 
grabbed the headlines after they were sung by X Factor 
contestants including Shakespeare's Sister Stay, Gary Jules 
Mad World and Fergie's Big Girls Don't Cry.
__________

Disc 1
------

 1. Somebody To Love - Queen

 2. Your Song - Ellie Goulding

 3. Make You Feel My Love - Adele

 4. The Flood - Cheryl Cole

 5. All The Lovers - Kylie Minogue

 6. Well, Well, Well - Duffy

 7. Crossfire - Brandon Flowers

 8. Stay - Shakespears Sister

 9. Big Girls Don't Cry (Personal) - Fergie

10. Broken Strings - James Morrison, Nelly Furtado

11. Missing You - The Saturdays

12. If Tomorrow Never Comes - Ronan Keating

13. Mayhem - Imelda May

14. Back To Black - Amy Winehouse

15. Have A Nice Day - Stereophonics

16. Sewn- The Feeling

17. Inner Smile - Texas

18. One Day In Your Life - Michael Jackson

19. The First Time Ever I Saw Your Face - The Temptations

20. Feeling Good - Nina Simone, Hal Mooney

Disc 2
------

 1. The Flood - Take That

 2. Chasing Cars - Snow Patrol

 3. Fix You - Coldplay

 4. Airplanes - B.o.B. ft. Hayley Williams

 5. You've Got The Love - Florence + The Machine

 6. Pack Up - Eliza Doolittle

 7. Like A Star - Corinne Bailey Rae

 8. Human - The Killers

 9. Alejandro - Lady Gaga

10. Te Amo - Rihanna 11. Secrets - OneRepublic

12. Can't Make This Over - Pixie Lott

13. Gave It All Away - Boyzone

14. Love Love - Amy Macdonald

15. Blue Skies - Jamiroquai

16. Bedshaped - Keane

17. She's So Lovely - Scouting For Girls

18. Daniel - Elton John

19. Mad World - Tears For Fears

20. You Do Something To Me - Paul Weller
__________

Format                           : MPEG Audio
File size                        : 11.4 MiB
Duration                         : 4mn 58s
Overall bit rate                 : 320 Kbps
Album                            : Your Songs (2011)
Track name                       : Somebody To Love
Track name/Position              : 1
Track name/Total                 : 20
Performer                        : Queen
Genre                            : pop
Recorded date                    : 2011
Writing library                  : LAME3.98r

Audio
Format                           : MPEG Audio
Format version                   : Version 1
Format profile                   : Layer 3
Mode                             : Joint stereo
Mode extension                   : MS Stereo
Duration                         : 4mn 58s
Bit rate mode                    : Constant
Bit rate                         : 320 Kbps
Channel(s)                       : 2 channels
Sampling rate                    : 44.1 KHz
Stream size                      : 11.4 MiB (100%)
Writing library                  : LAME3.98r
Encoding settings                : -m j -V 4 -q 7 -lowpass 20.5

----------

Format                           : MPEG Audio
File size                        : 9.65 MiB
Duration                         : 4mn 12s
Overall bit rate                 : 320 Kbps
Album                            : Your Songs (2011)
Track name                       : The Flood 
Track name/Position              : 1
Track name/Total                 : 20
Performer                        : Take That
Genre                            : POP
Recorded date                    : 2011
Writing library                  : LAME3.98r

Audio
Format                           : MPEG Audio
Format version                   : Version 1
Format profile                   : Layer 3
Mode                             : Joint stereo
Duration                         : 4mn 12s
Bit rate mode                    : Constant
Bit rate                         : 320 Kbps
Channel(s)                       : 2 channels
Sampling rate                    : 44.1 KHz
Stream size                      : 9.65 MiB (100%)
Writing library                  : LAME3.98r
Encoding settings                : -m j -V 4 -q 7 -lowpass 20.5
__________

Mp3

Ripped:320

Enjoy:D